<?xml version="1.0" encoding="utf-8"?>
<!-- Generator: Adobe Illustrator 19.0.0, SVG Export Plug-In . SVG Version: 6.00 Build 0)  -->
<svg version="1.1" id="Layer_1" xmlns="http://www.w3.org/2000/svg" xmlns:xlink="http://www.w3.org/1999/xlink" x="0px" y="0px"
	 viewBox="0 0 1615 1280" style="enable-background:new 0 0 1615 1280;" xml:space="preserve">
<style type="text/css">
	.st0{fill:#FFFFFF;}
	.st1{fill:#F88A2F;}
</style>
<g id="XMLID_15_">
	<g id="XMLID_19_">
		<path id="XMLID_20_" class="st0" d="M22.5,983.1H98l98.5,144.8V983.1h76.2v261.6h-76.2l-98-143.7v143.7h-76V983.1z"/>
		<path id="XMLID_22_" class="st0" d="M496.7,983.1h80.7v155.9c0,15.5-2.4,30.1-7.2,43.8c-4.8,13.7-12.4,25.7-22.7,36
			c-10.3,10.3-21.1,17.5-32.4,21.7c-15.7,5.8-34.6,8.7-56.6,8.7c-12.7,0-26.6-0.9-41.7-2.7c-15.1-1.8-27.6-5.3-37.7-10.6
			c-10.1-5.3-19.4-12.8-27.8-22.6c-8.4-9.7-14.1-19.8-17.2-30.1c-5-16.6-7.5-31.4-7.5-44.2V983.1h80.7v159.6
			c0,14.3,4,25.4,11.9,33.4c7.9,8,18.9,12,32.9,12c13.9,0,24.8-4,32.7-11.9c7.9-7.9,11.9-19.1,11.9-33.6V983.1z"/>
		<path id="XMLID_42_" class="st0" d="M631.4,983.1h75.5l98.5,144.8V983.1h76.2v261.6h-76.2l-98-143.7v143.7h-76V983.1z"/>
		<path id="XMLID_46_" class="st0" d="M917,983.1h245.8v64.6h-82.5v197h-80.8v-197H917V983.1z"/>
		<path id="XMLID_49_" class="st0" d="M1202.5,983.1h81v261.6h-81V983.1z"/>
		<path id="XMLID_71_" class="st0" d="M1511.8,983.1h80.7v155.9c0,15.5-2.4,30.1-7.2,43.8c-4.8,13.7-12.4,25.7-22.7,36
			c-10.3,10.3-21.1,17.5-32.4,21.7c-15.7,5.8-34.6,8.7-56.6,8.7c-12.7,0-26.6-0.9-41.7-2.7c-15.1-1.8-27.6-5.3-37.7-10.6
			c-10.1-5.3-19.4-12.8-27.8-22.6c-8.4-9.7-14.1-19.8-17.2-30.1c-5-16.6-7.5-31.4-7.5-44.2V983.1h80.7v159.6
			c0,14.3,4,25.4,11.9,33.4c7.9,8,18.9,12,32.9,12c13.9,0,24.8-4,32.7-11.9c7.9-7.9,11.9-19.1,11.9-33.6V983.1z"/>
	</g>
	<path id="XMLID_17_" class="st0" d="M414.7,813.5c-22.2,0-43-9.3-57.8-26.1c-12.9-14.6-19.1-34-19.1-53.5l0-624.1
		c0-42.6,33.8-78.8,76.5-79c24.5-0.1,41.6,10.6,51.7,19.6c25,22.4,56.9,34,89.1,34c18.8,0,37.6-3.9,55.4-12
		c60.5-27.6,125-41.5,191.7-41.5c7.3,0,14.8,0.2,22.1,0.5C1072,43,1266.1,250.6,1266.1,504.1v232.5c0,42.5-34.4,76.9-76.9,76.9h0
		c-42.5,0-76.9-34.4-76.9-76.9V499.4c0-161.5-123.9-299.2-282.1-313.4c-9.4-0.8-18.9-1.3-28.2-1.3c-171.1,0-310.3,139.2-310.3,310.3
		v241.6C491.6,779.1,457.2,813.5,414.7,813.5L414.7,813.5L414.7,813.5z"/>
	<path id="XMLID_16_" class="st1" d="M801.9,371.8L801.9,371.8c-70.5,0-127.6,57.1-127.6,127.6l0,0c0,28.8,9.6,55.2,25.7,76.5
		l-22.5,207.9c-1.7,15.8,10.7,29.5,26.5,29.5h195.7c15.9,0,28.2-13.8,26.5-29.5L903.8,576c16.1-21.3,25.7-47.8,25.7-76.5l0,0
		C929.5,429,872.4,371.8,801.9,371.8z"/>
</g>
</svg>
