<?xml version="1.0" encoding="utf-8"?>
<!-- Generator: Adobe Illustrator 19.0.0, SVG Export Plug-In . SVG Version: 6.00 Build 0)  -->
<svg version="1.1" id="Layer_1" xmlns="http://www.w3.org/2000/svg" xmlns:xlink="http://www.w3.org/1999/xlink" x="0px" y="0px"
	 viewBox="0 0 1024 1024" style="enable-background:new 0 0 1024 1024;" xml:space="preserve">
<style type="text/css">
	.st0{fill:#FFFFFF;}
	.st1{fill:#F88A2F;}
</style>
<g id="XMLID_334_">
	<path id="XMLID_336_" class="st0" d="M94.9,933.6c-23.9,0-46.3-10.1-62.3-28.2C18.7,889.7,12,868.8,12,847.8l0-672.3
		c0-45.9,36.4-84.8,82.4-85.1c26.4-0.1,44.8,11.4,55.7,21.1c26.9,24.1,61.2,36.7,96,36.7c20.2,0,40.5-4.2,59.6-13
		c65.2-29.7,134.6-44.7,206.5-44.7c7.9,0,15.9,0.2,23.8,0.6c266.9,12.5,476,236.1,476,509.2v250.4c0,45.8-37.1,82.9-82.9,82.9h0
		c-45.8,0-82.9-37.1-82.9-82.8V595.2c0-174-133.5-322.3-303.9-337.6c-10.1-0.9-20.3-1.4-30.4-1.4c-184.3,0-334.3,150-334.3,334.3
		v260.2C177.7,896.5,140.6,933.6,94.9,933.6L94.9,933.6L94.9,933.6z"/>
	<path id="XMLID_335_" class="st1" d="M512,457.8L512,457.8c-75.9,0-137.4,61.5-137.4,137.4l0,0c0,31,10.4,59.5,27.7,82.5L378,901.6
		c-1.8,17,11.5,31.8,28.6,31.8h210.8c17.1,0,30.4-14.8,28.6-31.8l-24.2-223.9c17.3-23,27.7-51.5,27.7-82.5l0,0
		C649.4,519.3,587.9,457.8,512,457.8z"/>
</g>
</svg>
